<svg width="80" height="54" viewBox="0 0 80 54" fill="none" xmlns="http://www.w3.org/2000/svg">
<path d="M4.66668 53.5C3.41529 53.5 2.3656 53.076 1.5176 52.228C0.669598 51.38 0.247071 50.3318 0.250015 49.0833C0.250015 47.832 0.674016 46.7823 1.52202 45.9343C2.37002 45.0863 3.41824 44.6637 4.66668 44.6667H75.3334C76.5847 44.6667 77.6344 45.0907 78.4824 45.9387C79.3304 46.7867 79.753 47.8349 79.75 49.0833C79.75 50.3347 79.326 51.3844 78.478 52.2324C77.63 53.0804 76.5818 53.5029 75.3334 53.5H4.66668ZM4.66668 31.4167C3.41529 31.4167 2.3656 30.9927 1.5176 30.1447C0.669598 29.2967 0.247071 28.2484 0.250015 27C0.250015 25.7486 0.674016 24.6989 1.52202 23.8509C2.37002 23.0029 3.41824 22.5804 4.66668 22.5833H75.3334C76.5847 22.5833 77.6344 23.0073 78.4824 23.8553C79.3304 24.7033 79.753 25.7516 79.75 27C79.75 28.2514 79.326 29.3011 78.478 30.1491C77.63 30.9971 76.5818 31.4196 75.3334 31.4167H4.66668ZM4.66668 9.33333C3.41529 9.33333 2.3656 8.90933 1.5176 8.06133C0.669598 7.21333 0.247071 6.16511 0.250015 4.91667C0.250015 3.66528 0.674016 2.61558 1.52202 1.76758C2.37002 0.919584 3.41824 0.497056 4.66668 0.5H75.3334C76.5847 0.5 77.6344 0.924001 78.4824 1.772C79.3304 2.62 79.753 3.66822 79.75 4.91667C79.75 6.16806 79.326 7.21775 78.478 8.06575C77.63 8.91375 76.5818 9.33628 75.3334 9.33333H4.66668Z" fill="#176060"/>
</svg>
