<svg version="1.2" xmlns="http://www.w3.org/2000/svg" viewBox="0 0 57 8" width="57" height="8">
	<title>HERO BANNER</title>
	<style>
		.s0 { fill: #4b5c75 } 
	</style>
	<g id="HERO BANNER">
		<g id="search bar">
			<path id="Location" class="s0" aria-label="Location"  d="m1.1 8v-8.7h1.2v7.7h4.3v1zm9.8-7.9q-1.3 0-2.1 0.9-0.7 1-0.7 2.6 0 1.7 0.7 2.6 0.8 1 2.1 1 1.3 0 2-1 0.8-0.9 0.8-2.6 0-1.6-0.8-2.6-0.7-0.9-2-0.9zm0-1q1.8 0 2.9 1.2 1.1 1.3 1.1 3.3 0 2.1-1.1 3.3-1.1 1.3-2.9 1.3-1.9 0-3-1.3-1.1-1.2-1.1-3.3 0-2 1.1-3.3 1.1-1.2 3-1.2zm12.4 0.8v1.3q-0.6-0.6-1.2-0.9-0.7-0.2-1.5-0.2-1.5 0-2.3 0.9-0.8 0.9-0.8 2.6 0 1.8 0.8 2.7 0.8 0.9 2.3 0.9 0.8 0 1.5-0.3 0.6-0.3 1.2-0.8v1.2q-0.6 0.4-1.3 0.7-0.7 0.2-1.5 0.2-1.9 0-3.1-1.2-1.1-1.3-1.1-3.4 0-2.1 1.1-3.3 1.2-1.2 3.1-1.2 0.8 0 1.5 0.2 0.7 0.2 1.3 0.6zm6.4 4.9l-1.6-4.4-1.6 4.4zm-5.6 3.2l3.3-8.7h1.3l3.4 8.7h-1.3l-0.8-2.2h-3.9l-0.8 2.2zm7.2-7.8v-0.9h7.4v0.9h-3.2v7.8h-1.1v-7.8zm8.5 7.8v-8.7h1.2v8.7zm7.1-7.9q-1.3 0-2.1 0.9-0.7 1-0.7 2.6 0 1.7 0.7 2.6 0.8 1 2.1 1 1.3 0 2-1 0.8-0.9 0.8-2.6 0-1.6-0.8-2.6-0.7-0.9-2-0.9zm0-1q1.8 0 2.9 1.2 1.1 1.3 1.1 3.3 0 2.1-1.1 3.3-1.1 1.3-2.9 1.3-1.9 0-3-1.3-1.1-1.2-1.1-3.3 0-2 1.1-3.3 1.1-1.2 3-1.2zm5.9 8.9v-8.7h1.6l3.8 7.3v-7.3h1.2v8.7h-1.6l-3.9-7.3v7.3z"/>
		</g>
	</g>
</svg>